<svg width="60" height="72" viewBox="0 0 60 72" fill="none" xmlns="http://www.w3.org/2000/svg">
<rect width="60" height="60" rx="3.75" fill="#FF9D52"/>
<path d="M36.455 41.3C36.455 42.7933 36.105 44.1583 35.405 45.395C34.7283 46.6083 33.69 47.5883 32.29 48.335C30.9133 49.0583 29.2217 49.42 27.215 49.42H23.82V57.75H16.96V33.075H27.215C29.1983 33.075 30.8783 33.425 32.255 34.125C33.655 34.825 34.705 35.7933 35.405 37.03C36.105 38.2667 36.455 39.69 36.455 41.3ZM26.55 43.96C28.4867 43.96 29.455 43.0733 29.455 41.3C29.455 39.5033 28.4867 38.605 26.55 38.605H23.82V43.96H26.55ZM56.571 33.075V38.535H49.991V57.75H43.131V38.535H36.621V33.075H56.571Z" fill="#071E48"/>
</svg>
